<svg viewBox="0 0 64 64" xmlns="http://www.w3.org/2000/svg" role="img" aria-label="Profound Book Club">
  <style>
    .tile { fill: #F7F0E1; }
    .ink { fill: #A8322D; }
    .inkstroke { stroke: #A8322D; }
    @media (prefers-color-scheme: dark) {
      .tile { fill: #1F1B16; }
      .ink { fill: #B5893C; }
      .inkstroke { stroke: #B5893C; }
    }
  </style>
  <rect x="1" y="1" width="62" height="62" rx="13" class="tile"/>
  <path d="M1255.7965087890625 -22Q1403.194580078125 -22 1505.993408203125 33.29986572265625Q1608.792236328125 88.5997314453125 1662.3917236328125 196.69927978515625Q1715.9912109375 304.798828125 1715.9912109375 462.7978515625Q1715.9912109375 645.3988037109375 1650.3915405273438 817.7991333007812Q1584.7918701171875 990.199462890625 1465.792236328125 1127.3995361328125Q1330.7926025390625 1284.399658203125 1151.2937622070312 1378.2993774414062Q971.794921875 1472.1990966796875 767.396484375 1472.1990966796875Q570.19873046875 1472.1990966796875 427.2000732421875 1409.9993896484375Q284.201416015625 1347.7996826171875 207.50201416015625 1239.1000366210938Q130.8026123046875 1130.400390625 130.8026123046875 988.6005859375Q130.8026123046875 885.60107421875 171.20208740234375 831.6012573242188Q211.6015625 777.6014404296875 280.8004150390625 777.6014404296875Q329.1990966796875 777.6014404296875 359.898193359375 809.6005249023438Q390.5972900390625 841.599609375 390.5972900390625 890.398193359375Q390.5972900390625 927.5977783203125 380.49700927734375 956.4972534179688Q370.396728515625 985.396728515625 357.69635009765625 1012.5962524414062Q344.9959716796875 1039.7957763671875 334.89569091796875 1072.4954223632812Q324.79541015625 1105.195068359375 324.79541015625 1150.1949462890625Q324.79541015625 1243.7958984375 374.49566650390625 1312.9968872070312Q424.1959228515625 1382.1978759765625 521.9962158203125 1420.6985473632812Q619.7965087890625 1459.19921875 763.3966064453125 1459.19921875Q966.39501953125 1459.19921875 1142.6939086914062 1366.2994384765625Q1318.9927978515625 1273.399658203125 1450.992431640625 1119.99951171875Q1571.1920166015625 982.199462890625 1636.5916748046875 810.299072265625Q1701.9913330078125 638.398681640625 1701.9913330078125 461.997802734375Q1701.9913330078125 323.197998046875 1663.4913330078125 231.6981201171875Q1624.9913330078125 140.1982421875 1556.2913208007812 95.29827880859375Q1487.59130859375 50.3983154296875 1395.1912841796875 50.3983154296875Q1318.99169921875 50.3983154296875 1255.0918579101562 81.09832763671875Q1191.1920166015625 111.79833984375 1125.1921997070312 181.89813232421875Q1059.1923828125 251.9979248046875 974.7928466796875 369.997314453125Q910.3929443359375 460.9971923828125 866.5929565429688 555.597412109375Q822.79296875 650.1976318359375 800.6929321289062 751.7975463867188Q778.5928955078125 853.3974609375 778.5928955078125 965.79638671875Q778.5928955078125 1084.7978515625 821.3938598632812 1159.9982299804688Q864.19482421875 1235.1986083984375 920.3961181640625 1235.1986083984375Q967.197021484375 1235.1986083984375 988.3976440429688 1173.1989135742188Q1009.5982666015625 1111.19921875 1009.5982666015625 1013.19970703125Q1009.5982666015625 905.79931640625 979.0975952148438 832.8992309570312Q948.596923828125 759.9991455078125 896.69580078125 721.0990600585938Q844.794677734375 682.198974609375 780.393310546875 676.1986083984375L782.9932861328125 666.598876953125Q916.9925537109375 672.5992431640625 1015.292236328125 713.4993896484375Q1113.5919189453125 754.3995361328125 1167.6918334960938 827.2996826171875Q1221.791748046875 900.1998291015625 1221.791748046875 1001.2001953125Q1221.791748046875 1076.1995849609375 1185.792236328125 1133.8991088867188Q1149.792724609375 1191.5986328125 1086.193603515625 1224.4983520507812Q1022.594482421875 1257.3980712890625 939.3956298828125 1257.3980712890625Q817.1971435546875 1257.3980712890625 728.9982299804688 1203.1984252929688Q640.79931640625 1148.998779296875 593.4998779296875 1054.0995483398438Q546.200439453125 959.2003173828125 546.200439453125 836.2015380859375Q546.200439453125 750.4010009765625 563.0006103515625 656.100830078125Q579.80078125 561.8006591796875 618.7009887695312 463.50067138671875Q657.6011962890625 365.20068359375 724.001220703125 265.20068359375Q796.001220703125 158.6007080078125 879.4004516601562 95.800537109375Q962.7996826171875 33.0003662109375 1057.298583984375 5.50018310546875Q1151.7974853515625 -22 1255.7965087890625 -22ZM1113.792236328125 178.3985595703125 1118.1922607421875 170.19873046875Q1287.5904541015625 242.400634765625 1375.4891357421875 349.80072021484375Q1463.3878173828125 457.2008056640625 1463.3878173828125 583.6002197265625Q1463.3878173828125 665.1988525390625 1423.3887329101562 707.1980590820312Q1383.3896484375 749.197265625 1329.390869140625 749.197265625Q1271.592529296875 749.197265625 1233.7936401367188 713.3982543945312Q1195.9947509765625 677.5992431640625 1195.9947509765625 630.6004638671875Q1195.9947509765625 596.6009521484375 1207.2949829101562 569.0012817382812Q1218.59521484375 541.401611328125 1229.595458984375 510.10198974609375Q1240.595703125 478.8023681640625 1240.595703125 432.6029052734375Q1240.595703125 400.2025146484375 1229.0953369140625 354.60211181640625Q1217.594970703125 309.001708984375 1189.9942016601562 262.50091552734375Q1162.3934326171875 216.0001220703125 1113.792236328125 178.3985595703125ZM584.8001708984375 649.999755859375 584.4002685546875 658.99951171875Q433.600830078125 652.59912109375 328.8013916015625 604.69873046875Q224.001953125 556.79833984375 170.0023193359375 475.59820556640625Q116.002685546875 394.3980712890625 116.002685546875 286.5985107421875Q116.002685546875 146.7991943359375 208.9024658203125 62.39959716796875Q301.80224609375 -22 470.8018798828125 -22Q575.2012939453125 -22 650.6011352539062 -3.70001220703125Q726.0009765625 14.5999755859375 782.1010131835938 46.5Q838.2010498046875 78.4000244140625 882.4010009765625 117.60009765625L875.0010986328125 136.7994384765625Q837.4002685546875 106.99853515625 784.6990356445312 87.0977783203125Q731.997802734375 67.197021484375 655.595458984375 67.197021484375Q525.9947509765625 67.197021484375 454.99444580078125 146.2969970703125Q383.994140625 225.39697265625 383.994140625 368.1966552734375Q383.994140625 436.996826171875 408.09478759765625 498.89739990234375Q432.1954345703125 560.7979736328125 477.19677734375 601.9986572265625Q522.1981201171875 643.1993408203125 584.8001708984375 649.999755859375Z" transform="translate(32.000 32.000) scale(0.02544 -0.02544) translate(-916.000 -725.000)" class="ink"/>
</svg>